<svg x="0" y="0" width="48" height="48" version="1.1" xmlns="http://www.w3.org/2000/svg" xmlns:xlink="http://www.w3.org/1999/xlink"><defs><linearGradient x1="11.74238" y1="9.8461" x2="60.64765" y2="62.54393" gradientUnits="userSpaceOnUse" id="color-1"><stop offset="0" stop-color="#000000" stop-opacity="0.7"></stop><stop offset="1" stop-color="#000000" stop-opacity="0"></stop></linearGradient><filter id="dropshadow"><feColorMatrix type="matrix" values="0 0 0 0 .05  0 0 0 0 .15  0 0 0 0 .1  0 0 0 .8 0"></feColorMatrix> <feOffset dx="0" dy="1"></feOffset> <feGaussianBlur stdDeviation="1"></feGaussianBlur> <feComposite in="SourceGraphic"></feComposite></filter></defs><g fill="none" stroke="none" stroke-width="none" stroke-linecap="butt" stroke-linejoin="miter" stroke-miterlimit="none" stroke-dasharray="" stroke-dashoffset="0" font-family="none" font-weight="normal" font-size="none" text-anchor="start" mix-blend-mode="normal"><g id="Layer_2" fill="#000000" stroke="none" stroke-width="1" stroke-miterlimit="4" font-family="&quot;Open Sans&quot;, sans-serif" font-size="14"><g></g><g></g><g></g><g></g><g></g><g></g></g><path d="M3,24c0,-11.59798 9.40202,-21 21,-21c11.59798,0 21,9.40202 21,21c0,11.59798 -9.40202,21 -21,21c-11.59798,0 -21,-9.40202 -21,-21z" fill="#512da8" stroke-width="1" stroke-miterlimit="10" font-family="sans-serif" font-size="12" filter="url(#dropshadow)"></path><path d="M25.60505,44.93958l-13.86267,-13.86267l0,-14.15384l12.25763,-7.07696l12.25761,12.25761l0,-0.00001l-12.25759,-12.25759l12.25759,7.07696l8.68196,8.68196c-0.77983,10.31833 -9.0162,18.55471 -19.33452,19.33455z" fill="url(#color-1)" stroke-width="1" stroke-miterlimit="10" font-family="sans-serif" font-size="12"></path><path d="M24.00002,9.8461l12.2576,7.07696l0,14.15385l-12.2576,7.07699l-12.25763,-7.07699l0,-14.15385z M32.89221,28.63181c3.94189,-6.63376 -1.68248,-15.04622 -10.38333,-14.08476l-1.53828,5.9128c2.40357,-1.53831 11.82546,-2.83627 11.92161,8.17197z M16.78839,29.92974c4.50305,5.31622 13.41189,4.85519 16.00767,-0.86788l-4.13413,-4.37187c0,5.14362 -4.5296,9.33825 -11.87354,5.23974z M21.49938,14.83544c-6.8261,1.39408 -8.98737,9.32573 -5.43202,14.18095l5.43202,-1.24981c-2.42339,-1.50684 -7.12347,-8.46054 0,-12.93114z" fill="#ffffff" stroke="none" stroke-width="0" stroke-miterlimit="4" font-family="&quot;Open Sans&quot;, sans-serif" font-size="14"></path></g></svg>